<?xml version="1.0" encoding="iso-8859-1"?>
<!-- Generator: Adobe Illustrator 18.1.1, SVG Export Plug-In . SVG Version: 6.00 Build 0)  -->
<svg version="1.1" id="Capa_1" xmlns="http://www.w3.org/2000/svg" xmlns:xlink="http://www.w3.org/1999/xlink" x="0px" y="0px"
	 viewBox="0 0 456.556 456.556" style="enable-background:new 0 0 456.556 456.556;" xml:space="preserve">
<g>
	<path d="M386.343,456.556H75.906c-7.417,0-13.428-6.011-13.428-13.428V107.561c0-7.417,6.011-13.428,13.428-13.428
		c7.417,0,13.428,6.011,13.428,13.428V429.7h283.582V107.561c0-7.417,6.015-13.428,13.428-13.428s13.428,6.011,13.428,13.428
		v335.567C399.771,450.545,393.757,456.556,386.343,456.556z"/>
	<path d="M434.762,111.943H21.794c-7.417,0-13.428-6.011-13.428-13.428c0-7.417,6.011-13.428,13.428-13.428h412.967
		c7.413,0,13.428,6.011,13.428,13.428C448.19,105.932,442.175,111.943,434.762,111.943z"/>
	<path d="M275.079,107.446c-7.413,0-13.428-6.011-13.428-13.428V55.919c0-16.026-13.036-29.063-29.059-29.063h-2.93
		c-16.026,0-29.066,13.036-29.066,29.063v38.099c0,7.417-6.011,13.428-13.428,13.428c-7.417,0-13.428-6.011-13.428-13.428V55.919
		C173.738,25.087,198.825,0,229.661,0h2.93c30.829,0,55.916,25.087,55.916,55.919v38.099
		C288.507,101.435,282.492,107.446,275.079,107.446z"/>
	<path d="M154.226,365.29c-5.934,0-10.742-4.808-10.742-10.742V187.095c0-5.934,4.808-10.742,10.742-10.742
		s10.742,4.808,10.742,10.742v167.453C164.968,360.482,160.16,365.29,154.226,365.29z"/>
	<path d="M309.446,365.29c-5.931,0-10.742-4.808-10.742-10.742V187.095c0-5.934,4.812-10.742,10.742-10.742
		s10.742,4.808,10.742,10.742v167.453C320.189,360.482,315.377,365.29,309.446,365.29z"/>
	<path d="M231.123,365.29c-5.931,0-10.742-4.808-10.742-10.742V187.095c0-5.934,4.812-10.742,10.742-10.742
		c5.931,0,10.742,4.808,10.742,10.742v167.453C241.865,360.482,237.053,365.29,231.123,365.29z"/>
</g>
<g>
</g>
<g>
</g>
<g>
</g>
<g>
</g>
<g>
</g>
<g>
</g>
<g>
</g>
<g>
</g>
<g>
</g>
<g>
</g>
<g>
</g>
<g>
</g>
<g>
</g>
<g>
</g>
<g>
</g>
</svg>
